<svg height="200" width="200" fill="#000000" xmlns="http://www.w3.org/2000/svg" xmlns:xlink="http://www.w3.org/1999/xlink" xml:space="preserve" version="1.1" style="shape-rendering:geometricPrecision;text-rendering:geometricPrecision;image-rendering:optimizeQuality;" viewBox="0 0 623 431" x="0px" y="0px" fill-rule="evenodd" clip-rule="evenodd"><defs><style type="text/css">
   
    .fil0 {fill:#000000}
   
  </style></defs><g><path class="fil0" d="M467 11c25,3 45,25 48,30l38 70 59 0c6,0 11,5 11,12l0 24c0,7 -5,12 -11,12l-33 0 17 16 17 74c0,38 0,76 0,115l-603 0c0,-39 0,-77 1,-115l16 -74 18 -16 -33 0c-7,0 -12,-5 -12,-12l0 -24c0,-7 5,-12 12,-12l58 0 38 -70c4,-5 24,-27 48,-30 96,-15 216,-15 311,0zm146 375l0 27c0,10 -8,18 -18,18l-81 0c-10,0 -18,-8 -18,-18l0 -22 -369 0 0 22c0,10 -8,18 -18,18l-81 0c-10,0 -18,-8 -18,-18l0 -27 603 0zm-453 -128l-91 0c-7,0 -12,5 -12,12l0 27c0,7 5,12 12,12l91 0c7,0 12,-5 12,-12l0 -27c0,-7 -5,-12 -12,-12zm303 0l91 0c7,0 13,5 13,12l0 27c0,7 -6,12 -13,12l-91 0c-6,0 -12,-5 -12,-12l0 -27c0,-7 6,-12 12,-12z"/></g></svg>