<svg height="200" width="200" fill="#000000" xmlns="http://www.w3.org/2000/svg" xmlns:xlink="http://www.w3.org/1999/xlink" version="1.1" x="0px" y="0px" viewBox="0 0 100 100" style="enable-background:new 0 0 100 100;" xml:space="preserve"><g><path d="M70.8,44h-3.7l-2.7-5.1c-1.6-2.9-4.6-4.8-7.9-4.8H34.6c-2.1,0-3.7,1.7-3.7,3.7V44h-4.2c-2.6,0-4.8,2.1-4.8,4.8v1.9   c0,3.9,3,7.2,6.8,7.6c0,0,0,0.1,0,0.1c0,3.4,2.8,6.2,6.2,6.2s6.2-2.8,6.2-6.2c0,0,0,0,0,0h16.8c0,0,0,0,0,0c0,3.4,2.8,6.2,6.2,6.2   s6.2-2.8,6.2-6.2c0,0,0,0,0,0h0.5c4,0,7.2-3.2,7.2-7.2S74.7,44,70.8,44z M32.8,37.8c0-1,0.8-1.7,1.7-1.7h21.9c2.6,0,5,1.4,6.2,3.7   l2.2,4.2h-32V37.8z M34.8,62.5c-2.3,0-4.2-1.9-4.2-4.2s1.9-4.2,4.2-4.2c2.3,0,4.2,1.9,4.2,4.2S37.1,62.5,34.8,62.5z M64,62.5   c-2.3,0-4.2-1.9-4.2-4.2s1.9-4.2,4.2-4.2c2.3,0,4.2,1.9,4.2,4.2S66.3,62.5,64,62.5z M70.8,56.3h-0.9c-0.8-2.4-3.1-4.2-5.9-4.2   s-5,1.8-5.9,4.2H40.7c-0.8-2.4-3.1-4.2-5.9-4.2c-2.7,0-5,1.7-5.9,4.2c-2.9-0.3-5.1-2.7-5.1-5.7v-1.9c0-1.5,1.2-2.8,2.8-2.8h5.2   h34.6h4.3c2.9,0,5.2,2.3,5.2,5.2S73.6,56.3,70.8,56.3z"/><path d="M51,48.3h-4.5c-0.6,0-1,0.4-1,1s0.4,1,1,1H51c0.6,0,1-0.4,1-1S51.5,48.3,51,48.3z"/></g></svg>