<svg height="200" width="200" fill="#000000" xmlns="http://www.w3.org/2000/svg" xmlns:xlink="http://www.w3.org/1999/xlink" version="1.1" x="0px" y="0px" viewBox="0 0 30 30" xml:space="preserve"><g transform="translate(-30 -140)"><g xmlns="http://www.w3.org/2000/svg" xmlns:xlink="http://www.w3.org/1999/xlink"><path d="M53.486,148.024C52.256,144.518,48.926,142,45,142s-7.256,2.518-8.486,6.024c-3.639,0.248-6.514,3.237-6.514,6.898    C30,160.308,37,168,37,168s2.063-2.275,3.95-5.211C43.041,165.822,45,168,45,168s1.959-2.178,4.05-5.211    C50.937,165.725,53,168,53,168s7-7.692,7-13.077C60,151.262,57.125,148.272,53.486,148.024z M37,151c0-4.411,3.589-8,8-8    s8,3.589,8,8c0,5.388-5.887,12.93-8,15.463C42.887,163.93,37,156.388,37,151z M37,166.467c-1.75-2.101-6-7.607-6-11.544    c0-3.003,2.277-5.485,5.217-5.866C36.078,149.683,36,150.332,36,151c0,0.378,0.031,0.766,0.08,1.159    C34.877,152.549,34,153.666,34,155c0,1.657,1.343,3,3,3c0.345,0,0.67-0.07,0.979-0.177c0.705,1.415,1.53,2.796,2.365,4.064    C39.138,163.81,37.805,165.5,37,166.467z M53,166.467c-0.805-0.967-2.138-2.657-3.344-4.58c0.835-1.268,1.66-2.649,2.365-4.064    C52.33,157.93,52.655,158,53,158c1.657,0,3-1.343,3-3c0-1.333-0.877-2.451-2.08-2.841C53.969,151.766,54,151.378,54,151    c0-0.668-0.078-1.317-0.217-1.943c2.939,0.381,5.217,2.863,5.217,5.866C59,158.86,54.75,164.366,53,166.467z"/><circle cx="45" cy="151" r="4"/></g></g></svg>