<svg height="200" width="200" fill="#000000" xmlns="http://www.w3.org/2000/svg" xmlns:xlink="http://www.w3.org/1999/xlink" version="1.1" x="0px" y="0px" viewBox="0 0 30 30" xml:space="preserve"><g transform="translate(-210 -80)"><g xmlns="http://www.w3.org/2000/svg" xmlns:xlink="http://www.w3.org/1999/xlink"><circle cx="223" cy="91" r="4"/><path d="M232.5,95c-0.449,0-0.888,0.047-1.315,0.123C231.689,93.7,232,92.298,232,91c0-4.971-4.029-9-9-9s-9,4.029-9,9    c0,7,9,17,9,17s1.054-1.171,2.439-2.991c1.033,2.906,3.799,4.991,7.061,4.991c4.143,0,7.5-3.358,7.5-7.5S236.643,95,232.5,95z     M223,106.463c-2.113-2.533-8-10.075-8-15.463c0-4.411,3.589-8,8-8s8,3.589,8,8c0,1.377-0.388,2.895-0.996,4.434    c-2.913,1.03-5.004,3.8-5.004,7.066c0,0.434,0.045,0.856,0.115,1.271C224.277,104.901,223.523,105.836,223,106.463z M232.5,109    c-3.59,0-6.5-2.91-6.5-6.5s2.91-6.5,6.5-6.5s6.5,2.91,6.5,6.5S236.09,109,232.5,109z"/><polygon points="233.568,101 232.5,97.785 231.43,101 228,101 230.768,103.079 229.717,106.344 232.5,104.336 235.278,106.344     234.23,103.079 237,101   "/></g></g></svg>