<svg height="200" width="200" fill="#51A7F9" xmlns="http://www.w3.org/2000/svg" data-name="Layer 1" viewBox="0 0 100 100" x="0px" y="0px"><title>51</title><g data-name="Group"><path data-name="Compound Path" d="M90.3,44.8H57.8V39.2h20L88.7,25l-11-13.2H57.8V3.5H42.2v8.3H9.4L19.6,25.1l-9.9,14H42.2v5.7h-20L11.3,59l11,13.2H42.2V96.5H57.8V72.2H90.6L80.4,58.9ZM48.2,9.5h3.7v2.3H48.2ZM21.6,17.8H75L81,25.1l-6.2,8H21.3L27,25ZM48.2,39.2h3.7v5.7H48.2Zm3.7,51.3H48.2V72.2h3.7ZM78.4,66.2H25L19,58.9l6.2-8H78.7L73,59Z"/></g></svg>