<svg height="200" width="200" fill="#000000" xmlns="http://www.w3.org/2000/svg" xmlns:xlink="http://www.w3.org/1999/xlink" xml:space="preserve" style="shape-rendering:geometricPrecision;text-rendering:geometricPrecision;image-rendering:optimizeQuality;" viewBox="0 0 0.309378 0.193752" x="0px" y="0px" fill-rule="evenodd" clip-rule="evenodd"><defs><style type="text/css">
   
    .fil0 {fill:#000000}
   
  </style></defs><g><path class="fil0" d="M0.171827 0c-0.00219685,7.87402e-005 -0.0043937,0.00011811 -0.00659055,0.00015748 0.00346457,0.0063937 0.00824016,0.015185 0.015252,0.0280945 0.00570079,0.0104921 0.0139528,0.025689 0.027874,0.0512441 0.0139213,0.0255551 0.0335709,0.0614764 0.0619685,0.113382 0.0129331,-5.90551e-005 0.0259291,-9.84252e-005 0.0390472,-0.000133858 -0.037126,-0.0519646 -0.0628071,-0.0879094 -0.0810276,-0.113465 -0.0182205,-0.0255551 -0.0290787,-0.040748 -0.0365394,-0.0512205 -0.0091811,-0.0128898 -0.0154685,-0.0216457 -0.0199843,-0.0280591z"/><path class="fil0" d="M0.125209 0.000952756c-0.00216535,3.54331e-005 -0.00433465,7.48031e-005 -0.0065,0.000114173 -0.00398819,0.00651181 -0.00948819,0.0154488 -0.0175709,0.0285591 -0.00654724,0.010622 -0.0160276,0.0259409 -0.0317441,0.0514567 -0.0157165,0.0255157 -0.0377441,0.0612441 -0.0693937,0.112669 0.012315,-1.9685e-005 0.024689,-5.90551e-005 0.037126,-9.84252e-005 0.0234528,-0.0515 0.0397598,-0.0872677 0.0514213,-0.112783 0.0116614,-0.0255118 0.0187008,-0.0408346 0.0235748,-0.051437 0.00601181,-0.0130709 0.0101142,-0.0220118 0.0130866,-0.0284803z"/><path class="fil0" d="M0.148535 0.000988189c-0.00222835,5.90551e-005 -0.0044252,9.84252e-005 -0.00662205,0.000137795 -9.44882e-005,0.00172441 -0.000185039,0.00360236 -0.000279528,0.00561811 0.00250787,-3.93701e-005 0.00501181,-9.44882e-005 0.00751969,-0.000133858 -0.000216535,-0.00203543 -0.000433071,-0.00389764 -0.00061811,-0.00562205z"/><path class="fil0" d="M0.149492 0.00947638c-0.00268898,3.93701e-005 -0.00535039,7.87402e-005 -0.00801181,0.000133858 -0.000122047,0.00255906 -0.000248031,0.00535039 -0.000401575,0.0084685 0.00312598,-5.90551e-005 0.00624803,-0.000114173 0.00937402,-0.000153543 -0.00034252,-0.00314173 -0.000681102,-0.00592913 -0.00096063,-0.00844882z"/><path class="fil0" d="M0.15098 0.0224173c-0.00340551,7.87402e-005 -0.00677559,0.000137795 -0.0101496,0.00019685 -0.000185039,0.00408661 -0.000433071,0.00879528 -0.000681102,0.0141811 0.00414567,-7.87402e-005 0.00829134,-0.000133858 0.0124331,-0.000232283 -0.00061811,-0.00536614 -0.00114567,-0.0100551 -0.00160236,-0.0141457z"/><path class="fil0" d="M0.153543 0.0447205c-0.0046063,5.90551e-005 -0.00918504,0.000153543 -0.0137638,0.000212598 -0.000370079,0.00772835 -0.00080315,0.0171417 -0.00133071,0.0285354 0.00612598,-0.000114173 0.0122835,-0.000192913 0.0184331,-0.000271654 -0.00132677,-0.011374 -0.00244094,-0.020752 -0.00333858,-0.0284764z"/><path class="fil0" d="M0.159142 0.0920709c-0.00720866,7.48031e-005 -0.0143819,0.000173228 -0.0215276,0.000248031 -0.000464567,0.0101339 -0.000992126,0.0219016 -0.00154724,0.0360984 -0.000555118,0.0142008 -0.00120866,0.0308661 -0.00198031,0.0508031 0.0119094,-3.93701e-005 0.0238189,-9.84252e-005 0.0357598,-0.000137795 -0.00250394,-0.0199764 -0.00461024,-0.0366575 -0.00634252,-0.050878 -0.00173228,-0.0142205 -0.00315354,-0.0260039 -0.0043622,-0.0361339z"/></g></svg>