<svg height="200" width="200" fill="#000000" xmlns="http://www.w3.org/2000/svg" xmlns:xlink="http://www.w3.org/1999/xlink" version="1.1" x="0px" y="0px" viewBox="0 0 100 100" enable-background="new 0 0 100 100" xml:space="preserve"><g><path d="M75.4,98.4c-0.1-0.1-0.2-0.1-0.3-0.1c-0.6,0-1.2,0-1.7,0c-2.8,0-5.6,0-8.4,0c-3.7,0-7.3,0-11,0c-0.4,0-0.9,0-1.3,0   c-0.1,0-0.2,0-0.3,0c0,0-0.1,0-0.1,0c0,0,0-0.1,0-0.1c0,0,0.1-0.1,0.1-0.1c0.1-0.1,0.1-0.2,0-0.2c-0.2-0.1-0.5-0.3-0.7-0.4   c-0.1,0-0.2,0-0.3,0c-0.3,0.2-0.6,0.4-0.8,0.6c-0.2,0.2-0.4,0.2-0.7,0.2c-1.5,0-3,0-4.5,0c-0.7,0-1.3,0-2,0c-2.7,0-5.5,0-8.2,0   c-2.9,0-5.7,0-8.6,0c-0.6,0-1.3,0-1.9,0c-0.5,0-0.9-0.1-1.3-0.2c-2.1-0.7-4.1-1.4-6.1-2.2c-1.9-0.8-3.8-1.7-5.7-2.7   c-1.3-0.7-2.7-1.5-3.9-2.4c-0.8-0.6-1.7-1.3-2.4-2c-0.6-0.6-1.1-1.2-1.6-1.8c-0.3-0.4-0.6-0.9-0.8-1.4c-0.2-0.5-0.4-1-0.4-1.5   c0-0.2-0.1-0.4-0.1-0.7c0-0.1,0-0.2,0-0.3c0.1-0.4,0.1-0.8,0.2-1.2c0.2-0.7,0.5-1.4,0.9-2c0.4-0.6,0.9-1.2,1.4-1.7   c0.7-0.7,1.4-1.3,2.2-1.9c1.2-0.9,2.4-1.6,3.7-2.3c1.8-1,3.6-1.8,5.5-2.6c2.7-1.1,5.4-2.1,8.2-3c2.1-0.7,4.1-1.3,6.2-1.9   c5.4-1.5,10.7-3.2,16-5c3.2-1.1,6.3-2.2,9.4-3.5c2.1-0.8,4.1-1.7,6.1-2.8c1.1-0.6,2.2-1.2,3.3-1.9c0.6-0.4,1.3-0.9,1.9-1.4   c0.4-0.3,0.8-0.7,1.2-1.1c0.2-0.3,0.5-0.5,0.6-0.9c0.1-0.2,0.3-0.5,0.4-0.8c0.3-0.8,0.2-1.5-0.2-2.2c-0.2-0.3-0.4-0.5-0.6-0.7   c-0.3-0.3-0.7-0.6-1.1-0.9c-0.7-0.4-1.4-0.8-2.1-1.1c-1.1-0.5-2.3-0.8-3.4-1.2c-1.4-0.4-2.8-0.7-4.3-1c-1.1-0.2-2.1-0.4-3.2-0.6   c-0.9-0.1-1.8-0.3-2.6-0.4c-0.8-0.1-1.5-0.2-2.3-0.3c-0.8-0.1-1.6-0.2-2.4-0.3c-0.6-0.1-1.3-0.2-1.9-0.2c-0.7-0.1-1.4-0.1-2-0.2   c-0.7-0.1-1.4-0.2-2.2-0.2c-0.3,0-0.7-0.1-1-0.1c-0.5,0-0.9-0.1-1.4-0.1c-0.5,0-1-0.1-1.5-0.1c-0.4,0-0.8-0.1-1.2-0.1   c-0.5,0-1.1-0.1-1.6-0.1c-0.6,0-1.2-0.1-1.8-0.1c-0.5,0-0.9-0.1-1.4-0.1c-0.7,0-1.3-0.1-2-0.1c-0.7,0-1.4-0.1-2.1-0.1   c-0.1,0-0.1,0-0.2,0c-0.8,0-1.6-0.1-2.4-0.1c-0.7,0-1.4-0.1-2.1-0.1c-0.1,0-0.1,0-0.2,0c0,0-0.1,0,0-0.1c0-0.1,0-0.1,0.1-0.2   c0.2-0.4,0.4-0.8,0.6-1.2c0.4-0.8,0.7-1.5,1.1-2.3c0.1-0.1,0.1-0.2,0.2-0.3c0.1-0.1,0.1-0.2,0.3-0.2c0.4,0,0.8,0,1.2,0   c0.5,0,1,0,1.6,0.1c1.4,0,2.7,0.1,4.1,0.1c0.1,0,0.1,0,0.2,0c1.1,0,2.1,0.1,3.2,0.1c0.8,0,1.7,0.1,2.5,0.1c0.1,0,0.1,0,0.2,0   c0.9,0,1.7,0.1,2.6,0.1c0.7,0,1.4,0.1,2.1,0.1c0.1,0,0.1,0,0.2,0c0.9,0.1,1.8,0.1,2.8,0.2c0.6,0,1.3,0.1,1.9,0.1   c0.6,0,1.2,0.1,1.8,0.1c0.4,0,0.9,0.1,1.3,0.1c0.5,0,1.1,0.1,1.6,0.1c0.5,0,1,0.1,1.6,0.1c0.4,0,0.8,0.1,1.2,0.1   c0.5,0,0.9,0.1,1.4,0.1c0.5,0,0.9,0.1,1.4,0.1c0.3,0,0.7,0.1,1,0.1c0.7,0.1,1.4,0.1,2.1,0.2c0.7,0.1,1.4,0.2,2,0.2   c0.6,0.1,1.3,0.1,1.9,0.2c0.6,0.1,1.2,0.2,1.8,0.2c0.5,0.1,1.1,0.1,1.6,0.2c0.5,0.1,1.1,0.1,1.6,0.2c0.7,0.1,1.3,0.2,2,0.3   c0.6,0.1,1.3,0.2,1.9,0.3c0.8,0.1,1.5,0.3,2.3,0.4c1.3,0.2,2.5,0.5,3.8,0.7c1.7,0.4,3.4,0.8,5,1.2c1.8,0.5,3.6,1.1,5.4,1.8   c1,0.4,1.9,0.8,2.8,1.3c0.6,0.3,1.2,0.7,1.7,1.1c0.5,0.3,0.9,0.7,1.3,1.1c0.7,0.8,1.3,1.7,1.6,2.7c0.1,0.4,0.2,0.8,0.2,1.3   c0,0.7-0.1,1.4-0.3,2c-0.2,0.6-0.5,1.1-0.9,1.6c-0.5,0.7-1.1,1.3-1.7,1.8c-0.6,0.5-1.3,1.1-1.9,1.5c-1.1,0.8-2.3,1.6-3.5,2.3   c-1.7,1-3.4,1.9-5.1,2.8c-2.5,1.3-5,2.6-7.5,3.8c-2.2,1.1-4.3,2.3-6.4,3.6c-1.5,0.9-3,1.9-4.5,3c-1.1,0.9-2.2,1.8-3.2,2.8   c-0.7,0.7-1.4,1.5-2,2.4c-0.3,0.4-0.6,0.8-0.8,1.3c-0.2,0.4-0.4,0.8-0.4,1.3c0,0.4,0,0.8,0.1,1.1c0.1,0.4,0.3,0.8,0.5,1.2   c0.2,0.4,0.5,0.7,0.8,1c0.5,0.5,1,0.9,1.6,1.3c0.9,0.6,1.8,1.1,2.7,1.6c1.4,0.7,2.8,1.3,4.3,1.9c2.1,0.8,4.2,1.5,6.3,2.1   c2.6,0.8,5.3,1.5,7.9,2.2c2.6,0.7,5.2,1.4,7.8,2.1c1.5,0.4,2.9,0.8,4.3,1.3c0.4,0.1,0.8,0.3,1.2,0.4c0.2,0.1,0.4,0.1,0.5,0.2   c0.5,0.2,0.7,0.3,1.1,0.7c0,0.3,0,0.6,0,0.9C90.5,98.4,82.9,98.4,75.4,98.4z M32.5,36.3C32.5,36.4,32.5,36.4,32.5,36.3   c-0.4,0-0.9,0-1.3-0.1c-0.4,0-0.4,0-0.4,0.4c0,0.1,0,0.2,0,0.4c0,0.1,0,0.3,0,0.4c0,0.1,0,0.1,0.1,0.2c0.1,0,0.3,0,0.4,0   c0.6,0,1.2,0.1,1.8,0.1c0.3,0,0.6,0,0.8,0c0.1,0,0.1,0,0.2,0c0,0,0.1,0,0.1-0.1c0,0,0-0.1,0-0.1c0-0.2,0.1-0.5,0.1-0.7   c0,0,0-0.1,0-0.1c0-0.1-0.1-0.2-0.2-0.2c-0.1,0-0.1,0-0.2,0C33.5,36.4,33,36.4,32.5,36.3z M25.4,36.1   C25.4,36.1,25.4,36.1,25.4,36.1c-0.4,0-0.9,0-1.3,0c-0.1,0-0.2,0-0.3,0c0,0-0.1,0.1-0.1,0.1c0,0.3-0.1,0.7-0.1,1   c0,0.1,0.1,0.1,0.1,0.1c0.2,0,0.3,0,0.5,0c0.9,0,1.7,0.1,2.6,0.1c0.1,0,0.1,0,0.2,0c0.1,0,0.1,0,0.1-0.1c0-0.1,0-0.2,0.1-0.3   c0-0.2,0-0.3,0-0.5c0-0.4,0-0.4-0.4-0.4C26.4,36.1,25.9,36.1,25.4,36.1z M61.7,62.4c0.1,0,0.1,0,0.2-0.1c0.8-0.3,1.5-0.7,2.3-1   c0.1,0,0.1,0,0.2-0.1c0,0,0.1,0,0.1,0c0,0,0-0.1,0-0.1c-0.2-0.2-0.4-0.3-0.5-0.5c-0.1-0.1-0.3-0.3-0.4-0.4c0,0-0.1-0.1-0.2,0   c-0.1,0-0.1,0-0.2,0.1c-0.8,0.3-1.6,0.7-2.4,1c-0.1,0-0.1,0.1-0.2,0.1c0,0,0,0.1,0,0.1c0.1,0.1,0.1,0.2,0.2,0.2   c0.2,0.2,0.5,0.4,0.7,0.6C61.6,62.3,61.7,62.3,61.7,62.4z M68.6,41.5c0.1,0,0.1,0,0.2-0.1c0.2-0.3,0.4-0.6,0.5-0.9c0,0,0-0.1,0-0.1   c0,0,0-0.1,0-0.1c-0.1,0-0.1-0.1-0.2-0.1c-0.8-0.2-1.7-0.3-2.5-0.5c-0.7-0.1-0.6-0.2-0.9,0.4c-0.1,0.2-0.2,0.4-0.2,0.5   c0,0.1,0,0.1,0.1,0.2c0.1,0,0.1,0,0.2,0.1c0.7,0.1,1.5,0.3,2.2,0.4C68.2,41.5,68.4,41.5,68.6,41.5z M45.6,37.2   C45.5,37.2,45.5,37.2,45.6,37.2c-0.6,0-0.5,0-0.7,0.4c0,0.1-0.1,0.3-0.1,0.4c0,0.1,0,0.2,0,0.3c0,0.1,0.1,0.1,0.1,0.1   c0.3,0,0.6,0.1,1,0.1c0.6,0.1,1.2,0.1,1.8,0.2c0.7,0.1,0.6,0.1,0.7-0.5c0-0.2,0.1-0.3,0.1-0.5c0-0.2,0-0.2-0.1-0.2   c-0.2,0-0.4,0-0.6-0.1c-0.2,0-0.4,0-0.5,0C46.7,37.3,46.1,37.2,45.6,37.2z M35.5,83.5c-0.4,0-0.8,0.1-1.2,0.1c-0.1,0-0.3,0-0.4,0.1   c0,0-0.1,0.1-0.1,0.1c0,0.1,0,0.1,0,0.2c0.1,0.4,0.3,0.8,0.5,1.2c0.1,0.2,0.2,0.3,0.3,0.5c0.1,0.1,0.1,0.2,0.3,0.1   c0.1,0,0.2,0,0.3-0.1c0.4-0.1,0.8-0.2,1.2-0.3c0,0,0.1,0,0.1-0.1c0,0,0-0.1,0-0.1c0-0.1,0-0.1-0.1-0.2c-0.3-0.5-0.5-1-0.7-1.6   c0,0,0-0.1-0.1-0.1c0-0.1-0.1-0.1-0.1-0.1C35.6,83.5,35.6,83.5,35.5,83.5z M58.7,63.6C58.6,63.6,58.6,63.6,58.7,63.6   c-0.4-0.4-0.7-0.6-1-0.9c-0.1-0.1-0.1-0.1-0.2,0c-0.1,0-0.2,0.1-0.3,0.1c-0.7,0.3-1.4,0.6-2.2,1c-0.1,0-0.2,0.1-0.2,0.2   c0,0,0,0.1,0.1,0.1c0.3,0.3,0.6,0.5,0.9,0.8c0,0,0.1,0.1,0.1,0.1c0,0,0.1,0,0.1,0c0.1,0,0.1,0,0.2-0.1c0.8-0.3,1.6-0.7,2.3-1   C58.5,63.7,58.6,63.7,58.7,63.6C58.6,63.7,58.6,63.6,58.7,63.6z M52,37.8c-0.1,0.4-0.2,0.7-0.3,1.1c0,0,0,0.1,0.1,0.1   c0,0,0.1,0,0.1,0c0.8,0.1,1.6,0.2,2.3,0.3c0.2,0,0.4,0.1,0.7,0.1c0.2,0,0.2,0,0.3-0.2c0.1-0.3,0.2-0.6,0.3-0.9c0,0,0-0.1,0-0.1   c0-0.1,0-0.1-0.1-0.1c-0.1,0-0.2,0-0.3-0.1c-0.2,0-0.4,0-0.5-0.1c-0.7-0.1-1.3-0.2-2-0.2c-0.1,0-0.3,0-0.4,0   C52.1,37.8,52.1,37.8,52,37.8z M73,41.3c-0.2,0-0.2,0-0.3,0.1c-0.2,0.3-0.4,0.6-0.6,0.8c0,0,0,0.1-0.1,0.1c0,0,0,0.1,0,0.1   c0.1,0,0.2,0.1,0.3,0.1c0.7,0.2,1.3,0.4,2,0.6c0.7,0.2,0.5,0.3,1.1-0.3c0,0,0.1-0.1,0.1-0.1c0.1-0.1,0.2-0.3,0.3-0.4   c0,0,0-0.1,0-0.1c-0.1,0-0.1-0.1-0.2-0.1c-0.9-0.3-1.8-0.6-2.7-0.8C73,41.3,73,41.3,73,41.3z M46.3,94.4c0,0-0.1,0-0.1,0   c-0.4,0.2-0.8,0.5-1.2,0.7c0,0-0.1,0-0.1,0.1c0,0,0,0.1,0,0.1c0.1,0,0.1,0.1,0.2,0.1c0.7,0.4,1.3,0.8,2,1.2c0.1,0,0.1,0.1,0.2,0.1   c0.1,0,0.2,0,0.3,0c0.4-0.2,0.7-0.5,1.1-0.7c0,0,0.1,0,0.1-0.1c0,0,0-0.1,0-0.1c0,0-0.1-0.1-0.1-0.1c-0.7-0.4-1.4-0.9-2.1-1.3   C46.4,94.4,46.3,94.4,46.3,94.4z M39,36.7C39,36.7,39,36.7,39,36.7c-0.1,0-0.2,0-0.3,0c-0.2,0-0.4,0-0.6,0c-0.1,0-0.1,0.1-0.2,0.1   c0,0.1-0.2,0.9-0.2,1c0,0,0.1,0.1,0.1,0.1c0.1,0,0.1,0,0.2,0c0.6,0,1.2,0.1,1.8,0.1c0.3,0,0.6,0,0.8,0.1c0.1,0,0.3,0,0.4,0   c0.1,0,0.1,0,0.1-0.1c0.1-0.3,0.1-0.7,0.2-1c0-0.1,0-0.1-0.1-0.1c-0.1,0-0.3,0-0.4-0.1C40.3,36.8,39.6,36.7,39,36.7z M42.4,71.9   c-0.4-0.3-0.9-0.5-1.3-0.7c0,0,0,0,0,0c-0.1,0-0.1,0-0.2,0c-0.1,0.1-0.2,0.1-0.3,0.2c-0.5,0.4-1,0.8-1.6,1.2   c-0.4,0.3-0.4,0.3,0.1,0.6c0.1,0.1,0.3,0.1,0.4,0.2c0.2,0.1,0.4,0.2,0.6,0.3c0.1,0.1,0.2,0,0.3,0c0,0,0,0,0.1-0.1   c0.6-0.4,1.1-0.9,1.7-1.3C42.2,72.1,42.3,72.1,42.4,71.9C42.4,72,42.4,72,42.4,71.9z M80.8,52.3c0,0-0.1-0.1-0.1-0.1   c-0.5-0.2-0.9-0.4-1.4-0.6c0,0,0,0,0,0c0,0-0.1,0-0.1,0c-0.1,0-0.1,0.1-0.2,0.1c-0.5,0.4-1,0.9-1.6,1.2c0,0-0.1,0.1-0.1,0.1   c0,0,0,0-0.1,0.1c0,0,0,0.1,0,0.1c0.4,0.2,0.8,0.5,1.3,0.7c0.1,0,0.1,0,0.2,0c0.1-0.1,0.2-0.1,0.3-0.2c0.6-0.4,1.1-0.8,1.6-1.3   c0.1-0.1,0.1-0.1,0.2-0.2C80.7,52.4,80.8,52.3,80.8,52.3z M80.6,49.7c0.1,0.1,0.2,0.1,0.2,0.1c0.5,0.1,0.9,0.2,1.4,0.3   c0.1,0,0.1,0,0.2,0c0.1,0,0.1,0,0.1-0.1c0-0.1,0.1-0.1,0.1-0.2c0.3-0.6,0.4-1.3,0.3-1.9c0,0,0-0.1,0-0.1c0,0-0.1-0.1-0.1-0.1   c-0.1,0-0.1,0-0.2,0c-0.4,0-0.9,0.1-1.3,0.1c-0.1,0-0.3,0-0.4,0.1c0,0,0,0,0,0c0,0.1,0,0.1,0,0.2c0,0.5-0.1,0.9-0.2,1.3   C80.7,49.5,80.6,49.6,80.6,49.7z M79.1,43.6c0,0-0.1,0-0.1,0c-0.4,0.3-0.7,0.5-1.1,0.8c0,0,0,0,0,0c0,0,0,0.1,0,0.1   c0,0,0.1,0.1,0.1,0.1c0.6,0.4,1.3,0.8,1.8,1.3c0.1,0.1,0.2,0.1,0.2,0c0.5-0.2,0.9-0.4,1.4-0.6c0,0,0.1,0,0.1-0.1c0,0,0-0.1,0-0.1   c-0.1-0.1-0.1-0.1-0.2-0.2c-0.6-0.5-1.2-1-1.9-1.4C79.3,43.7,79.2,43.7,79.1,43.6z M61.9,40.3c0.1,0,0.2,0,0.3-0.1   c0.1-0.3,0.2-0.6,0.4-0.9c0,0,0-0.1,0-0.1c0-0.1,0-0.2-0.1-0.2c-0.2,0-0.4-0.1-0.7-0.1c-0.5-0.1-1.1-0.2-1.6-0.2   c-0.3,0-0.6-0.1-0.8-0.1c-0.2,0-0.2,0-0.3,0.2c-0.1,0.3-0.2,0.6-0.3,0.8c-0.1,0.2,0,0.2,0.2,0.3c0.1,0,0.3,0,0.4,0.1   c0.5,0.1,1.1,0.2,1.6,0.2C61.2,40.2,61.6,40.3,61.9,40.3z M51.8,65.2c-0.4,0.2-0.7,0.3-1,0.5c-0.5,0.3-1.1,0.5-1.6,0.8   c-0.1,0.1-0.1,0.1,0,0.2c0.3,0.3,0.6,0.5,1,0.8c0,0,0,0,0,0c0.1,0.1,0.2,0.1,0.3,0c0.8-0.4,1.6-0.8,2.5-1.2c0,0,0.1-0.1,0.1-0.1   c0,0,0-0.1,0-0.1C52.5,65.8,52.2,65.5,51.8,65.2z M40.2,91.9c0.1,0.1,0.1,0.1,0.2,0.2c0.6,0.4,1.2,0.9,1.7,1.3c0,0,0.1,0.1,0.1,0.1   c0.1,0.1,0.2,0.1,0.3,0c0.4-0.2,0.7-0.4,1.1-0.6c0.1,0,0.1-0.1,0.2-0.1c0-0.1,0-0.1-0.1-0.2c-0.6-0.5-1.2-0.9-1.8-1.4   c0,0,0,0-0.1-0.1c-0.1-0.1-0.2-0.1-0.3,0c-0.4,0.2-0.9,0.4-1.3,0.6C40.2,91.8,40.2,91.9,40.2,91.9z M66.4,58.8c0,0.1,0,0.1,0.1,0.2   c0.2,0.2,0.4,0.4,0.7,0.6c0.1,0.1,0.2,0.1,0.2,0.2c0.1,0.1,0.2,0.1,0.3,0c0,0,0.1,0,0.1,0c0.8-0.4,1.6-0.7,2.3-1.1c0,0,0.1,0,0.1,0   c0,0,0,0,0,0c0.1,0,0.1-0.1,0-0.2c-0.3-0.3-0.6-0.6-1-0.8c0,0,0,0,0,0c-0.1,0-0.1,0-0.2,0c0,0-0.1,0-0.1,0   c-0.8,0.4-1.6,0.7-2.3,1.1C66.5,58.7,66.5,58.8,66.4,58.8z M47.4,68.9C47.4,68.9,47.4,68.9,47.4,68.9c-0.4-0.4-0.7-0.6-1.1-0.9   C46.2,68,46.1,68,46,68c-0.1,0-0.2,0.1-0.2,0.1c-0.6,0.4-1.3,0.7-1.9,1.1c0,0-0.1,0-0.1,0.1c0,0,0,0-0.1,0.1   c-0.1,0.1-0.1,0.1,0,0.2c0.4,0.3,0.8,0.5,1.1,0.8c0.1,0,0.1,0,0.2,0c0,0,0.1,0,0.1,0c0.7-0.4,1.4-0.8,2.1-1.2   C47.3,69.1,47.3,69,47.4,68.9C47.4,69,47.4,69,47.4,68.9z M38.3,75.4c-0.1,0-0.1-0.1-0.2-0.1c-0.4-0.2-0.9-0.3-1.3-0.5   c0,0-0.1,0-0.1,0c0,0-0.1,0-0.1,0c-0.1,0.1-0.1,0.1-0.2,0.2c-0.4,0.5-0.8,1-1.2,1.5c-0.1,0.1-0.1,0.2-0.1,0.2c0,0.1,0,0.1,0.1,0.1   c0,0,0,0,0,0c0.5,0.1,1,0.3,1.6,0.4c0.1,0,0.2,0,0.3-0.1c0.4-0.5,0.8-1.1,1.2-1.6C38.2,75.5,38.2,75.5,38.3,75.4z M37.9,87.5   c-0.1,0-0.1,0-0.2,0c-0.3,0.1-0.6,0.2-0.9,0.3c-0.1,0-0.3,0.1-0.4,0.1c0,0-0.1,0-0.1,0c-0.1,0-0.1,0.1,0,0.2c0.5,0.6,1,1.1,1.5,1.6   c0,0,0,0,0,0c0.1,0.1,0.2,0.2,0.4,0.1c0.3-0.1,0.5-0.2,0.8-0.3c0.2-0.1,0.4-0.1,0.5-0.2c0.1,0,0.1-0.1,0-0.2c0,0-0.1-0.1-0.1-0.1   c-0.5-0.5-0.9-0.9-1.3-1.4c0,0-0.1-0.1-0.1-0.1C38,87.5,38,87.5,37.9,87.5z M75.9,55.7C75.9,55.7,75.9,55.7,75.9,55.7   c-0.4-0.4-0.8-0.6-1.2-0.9c-0.1,0-0.1,0-0.2,0c0,0-0.1,0-0.1,0.1c-0.7,0.4-1.4,0.8-2.2,1.2c0,0-0.1,0-0.1,0.1c-0.1,0-0.1,0.1,0,0.2   c0,0,0.1,0.1,0.1,0.1c0.3,0.2,0.6,0.4,0.8,0.7c0,0,0.1,0.1,0.1,0.1c0.1,0.1,0.2,0.1,0.3,0c0.1,0,0.1-0.1,0.2-0.1   c0.7-0.4,1.4-0.7,2.1-1.1C75.7,55.9,75.8,55.8,75.9,55.7C75.9,55.8,75.9,55.8,75.9,55.7z M34.5,81.4C34.5,81.4,34.5,81.4,34.5,81.4   c0.2,0,0.4,0,0.7,0c0.1,0,0.1,0,0.2,0c0.1,0,0.1-0.1,0.1-0.1c0,0,0,0,0,0c0-0.6,0.1-1.1,0.3-1.7c0,0,0-0.1,0-0.1c0,0,0-0.1-0.1-0.1   c-0.1,0-0.3-0.1-0.4-0.1c-0.4,0-0.7-0.1-1.1-0.1c-0.4-0.1-0.4,0-0.5,0.3c-0.1,0.5-0.2,1-0.3,1.4c0,0.1,0,0.2,0,0.4   c0,0,0.1,0.1,0.1,0.1c0.1,0,0.2,0,0.3,0C34.1,81.4,34.3,81.4,34.5,81.4z"/><path d="M29.2,15.3c0,1.4-0.2,2.6-0.5,3.8c-0.2,0.6-0.4,1.2-0.7,1.8c-0.9,1.8-1.7,3.6-2.6,5.4c-2.5,5.3-5,10.7-7.6,16   c-0.1,0.2-0.2,0.4-0.3,0.6c-0.2,0.3-0.5,0.6-0.8,0.8c-0.9,0.6-2,0.4-2.7-0.2c-0.3-0.2-0.5-0.5-0.7-0.9c-0.2-0.4-0.4-0.7-0.5-1.1   c-3.1-6.6-6.2-13.2-9.4-19.8C3.4,21.5,3.2,21,3,20.6c-0.4-0.9-0.7-1.9-0.9-2.9C2,17.2,2,16.6,2,16.1c0-1.5,0.2-3,0.6-4.5   c0.7-2.5,2-4.5,4-6.2c1.2-1,2.5-1.8,4-2.5c0.6-0.3,1.2-0.4,1.8-0.6C13.2,2.2,14,2.1,14.8,2c0.9-0.1,1.7-0.1,2.6,0   c1.6,0.2,3,0.6,4.4,1.3c0.9,0.5,1.7,1,2.4,1.7c1.5,1.3,2.7,2.8,3.6,4.6c0.6,1.1,0.9,2.2,1.2,3.4C29.2,13.8,29.2,14.6,29.2,15.3z    M24.5,15.6c0-0.8-0.1-1.6-0.3-2.4c-1-3.8-4.4-6.4-8.3-6.5c-0.9,0-1.8,0.1-2.7,0.3c-3.4,0.9-6.1,3.8-6.5,7.6   c-0.1,0.9-0.1,1.9,0.1,2.8c0.5,2.3,1.8,4.2,3.7,5.6c1.1,0.8,2.4,1.3,3.8,1.4c0.6,0.1,1.3,0.1,1.9,0c0.7-0.1,1.4-0.2,2.1-0.4   C21.8,23,24.5,19.8,24.5,15.6z"/><path d="M15.5,22.2c-1.5,0-2.9-0.5-4.1-1.5c-0.1-0.1-0.3-0.2-0.4-0.4c0,0-0.1-0.1-0.1-0.1c-0.1-0.3-0.3-0.5-0.5-0.7   c-0.7-0.9-1.1-1.9-1.2-3c-0.1-1.1-0.1-2.1,0.3-3.1c0.8-2.1,2.6-3.7,4.8-4.2c2.5-0.5,5.3,0.5,6.8,2.7c0.6,0.9,0.9,1.8,1.1,2.9   c0,0.4,0.1,0.7,0,1.1c0,0.1,0,0.1,0,0.2c0.1,0.5-0.1,0.9-0.2,1.4c-0.7,2.4-2.5,4-4.7,4.6C16.6,22.2,16.2,22.2,15.5,22.2z"/></g></svg>