<svg height="200" width="200" fill="#000000" xmlns="http://www.w3.org/2000/svg" xmlns:xlink="http://www.w3.org/1999/xlink" xml:space="preserve" version="1.1" style="shape-rendering:geometricPrecision;text-rendering:geometricPrecision;image-rendering:optimizeQuality;" viewBox="0 0 60000 60000" x="0px" y="0px" fill-rule="evenodd" clip-rule="evenodd"><defs><style type="text/css">
   
    .fil0 {fill:#000000;fill-rule:nonzero}
   
  </style></defs><g><g><path class="fil0" d="M46846 35275c139,-235 254,-503 340,-775 89,-285 147,-575 167,-836 42,-554 -174,-613 -576,-724 -25,-7 -52,-14 -111,-32l-1097 -323c-66,-187 -136,-382 -213,-580 -254,-657 -574,-1352 -936,-2044 -64,-122 -126,-239 -188,-351 -68,-125 -133,-242 -195,-351 -624,-1103 -1438,-2444 -2164,-3363 -557,-704 -1090,-1173 -1512,-1149l-17225 -3410c-6,-1 -12,-2 -18,-3 -33,-7 -94,-20 -152,-32 -468,-99 -719,-152 -1240,85 -1871,850 -3296,2165 -4325,3813 -951,1522 -1561,3328 -1872,5309l-1669 1113 -5 3 0 0c-186,131 -331,264 -422,393 -81,117 -123,237 -119,360 5,140 65,264 190,368 84,70 199,129 349,176l565 171 24573 6697c242,66 432,112 635,127 207,15 412,-6 674,-78 1468,-401 2913,-1039 4145,-1951 1090,-807 2015,-1827 2645,-3087l-243 476zm-238 -739c-584,1180 -1459,2159 -2485,2918 -1176,870 -2559,1480 -3966,1864 -195,53 -346,69 -494,59 -153,-11 -318,-52 -532,-110l-24186 -6571 -2 -1 -934 -290c-68,-21 -116,-42 -148,-63l13 -19c54,-77 154,-165 289,-261l0 0 1274 -847c-15,92 -25,176 -33,261 -95,908 141,968 849,1147 66,17 136,35 183,47l22423 5980c77,20 124,34 167,46 377,105 563,157 1034,65 1239,-241 2573,-749 3678,-1556 933,-681 1704,-1575 2120,-2701 113,-305 93,-404 40,-663 -2,-8 3,13 -16,-84 -36,-186 -82,-381 -141,-574l769 239c23,7 74,21 122,34 124,34 191,53 182,166 -17,221 -66,470 -143,716 -35,108 -42,124 -63,197zm-40850 -19215l48680 106 25 4c765,116 1660,324 2393,845 768,546 1330,1405 1342,2795 68,7342 68,14519 0,21861 -13,1389 -574,2249 -1342,2795 -732,521 -1627,728 -2393,845l-25 4c-16249,36 -32497,72 -48746,106l-55 -14c-1285,-323 -2231,-2057 -2856,-4546 -686,-2731 -1029,-6429 -1029,-10119 0,-3691 343,-7389 1029,-10119 626,-2489 1572,-4224 2856,-4546l55 -14 66 0zm48195 14565c0,-383 155,-730 406,-981 251,-251 598,-406 981,-406 383,0 730,155 981,406 251,251 406,598 406,981 0,383 -155,730 -406,981 -251,251 -598,406 -981,406 -383,0 -730,-155 -981,-406 -251,-251 -406,-598 -406,-981zm760 -628c-161,161 -260,383 -260,628 0,245 99,467 260,628 161,161 383,260 628,260 245,0 467,-99 628,-260 161,-161 260,-383 260,-628 0,-245 -99,-467 -260,-628 -161,-161 -383,-260 -628,-260 -245,0 -467,99 -628,260zm-50899 2225l0 -2990c0,-138 112,-250 250,-250l1085 0c138,0 250,112 250,250l0 2990c0,138 -112,250 -250,250l-1085 0c-138,0 -250,-112 -250,-250zm500 -2740l0 2490 585 0 0 -2490 -585 0zm3139 13508l0 -24342c0,-276 224,-500 500,-500l44662 0c276,0 500,224 500,500l0 24342c0,276 -224,500 -500,500l-44662 0c-276,0 -500,-224 -500,-500zm1000 -23842l0 23342 43662 0 0 -23342 -43662 0zm45885 -1987l-48509 -106c-855,262 -1554,1710 -2081,3806 -665,2648 -998,6259 -998,9877 0,3618 333,7229 998,9877 527,2096 1226,3544 2081,3806l48509 -106c644,-99 1381,-269 1938,-665 528,-376 915,-984 924,-1990l101 -10923 -101 -10923c-9,-1006 -396,-1614 -924,-1990 -557,-396 -1295,-566 -1938,-665zm-14525 21834c-120,-457 -203,-1061 -253,-1766 -60,-851 -72,-1838 -42,-2884 4,-126 8,-257 13,-395 5,-123 10,-256 17,-400 27,-576 38,-1231 50,-1905 41,-2380 86,-5018 840,-5625 213,26 582,401 1012,945 703,890 1502,2208 2118,3296 68,121 132,235 190,343 65,118 126,233 183,343 352,672 663,1349 911,1989 231,598 404,1163 501,1661 7,35 6,27 18,88 30,150 42,207 -19,372 -377,1018 -1079,1830 -1931,2452 -1035,756 -2292,1233 -3463,1461 -53,10 -101,18 -145,24zm-790 -1728c45,643 118,1211 222,1671 -24,-7 -50,-14 -76,-21 -61,-17 -127,-35 -174,-48l-22423 -5980c-86,-23 -139,-37 -189,-49 -368,-93 -491,-125 -444,-570 240,-2283 860,-4354 1919,-6050 974,-1560 2321,-2804 4089,-3607 362,-164 553,-124 909,-49 33,7 67,14 155,32 7,2 15,4 22,5l16791 3325c-682,1062 -723,3492 -762,5711 -11,661 -22,1302 -50,1888 -6,126 -12,262 -17,406 -5,129 -9,262 -13,399 -31,1070 -19,2075 42,2936zm-17255 -10943c-5,8 -10,17 -14,26 -355,746 -688,1456 -960,2196l-1672 -432c-4,-1 -8,-2 -12,-3 -19,-13 -41,-23 -63,-31 -141,-47 -293,30 -339,171 -131,394 -249,798 -358,1225 -106,416 -209,877 -315,1394l-1 3c-38,144 47,291 191,330l2137 579c144,38 291,-47 330,-191 8,-29 11,-59 9,-87 2,-11 4,-23 4,-35 47,-827 205,-1568 434,-2278l1365 353c-239,759 -404,1552 -454,2423 0,4 0,8 0,12 -28,138 56,276 195,313l1824 494c144,38 291,-47 330,-191 5,-20 8,-41 9,-61 5,-18 8,-37 9,-57 47,-826 215,-1588 454,-2322l1539 398c-245,768 -416,1565 -465,2424 0,7 0,14 0,21 -2,5 -3,11 -5,16 -38,144 47,291 191,330l1906 516c144,38 291,-47 330,-191 7,-28 10,-55 9,-82 3,-15 6,-31 7,-47 3,-46 6,-116 9,-189 7,-159 15,-332 30,-456 75,-596 212,-1166 389,-1722l1317 340c-190,595 -336,1208 -416,1853 -10,78 -22,198 -34,334 -11,124 -20,243 -26,334l0 4c-26,137 58,274 195,310l2257 611c144,38 291,-47 330,-191 4,-15 7,-29 8,-44 8,-24 14,-49 15,-76 47,-819 233,-1624 492,-2407l1388 359c-271,817 -466,1660 -515,2517 -2,31 2,60 10,88 -7,125 74,241 199,275l1916 519 0 0c17,5 35,8 54,9 148,9 276,-104 284,-253 26,-437 89,-879 181,-1320 93,-445 214,-889 355,-1326 6,-20 10,-40 12,-60 13,-22 24,-46 31,-73 37,-144 -49,-290 -193,-328l-1633 -422c303,-807 673,-1595 1029,-2343 63,-134 6,-295 -129,-358 -20,-9 -40,-16 -60,-20 -4,-1 -8,-2 -12,-3l-1888 -477c-82,-21 -166,-1 -228,47 -40,26 -74,64 -96,110 -366,770 -742,1576 -1051,2415l-1778 -460c273,-740 608,-1460 955,-2188 9,-18 15,-37 19,-55 22,-28 38,-61 47,-98 37,-144 -51,-291 -195,-328l-1853 -473c-144,-37 -291,51 -328,195 -1,4 -2,9 -3,13l-1 2c-352,739 -692,1470 -971,2225 -12,32 -23,63 -35,95l-1354 -350c272,-739 610,-1464 960,-2200 12,-25 20,-52 23,-78l2 -7c35,-144 -53,-290 -197,-326l-2060 -509c-144,-35 -290,53 -326,197l-2 9c-356,749 -700,1483 -981,2246l-1324 -342c260,-712 581,-1407 923,-2126 11,-23 18,-47 22,-71 7,-15 13,-32 17,-49 35,-144 -53,-290 -197,-326l-1874 -463c-142,-35 -286,50 -324,190z"/></g></g></svg>