<?xml version="1.0" encoding="utf-8"?>
<!-- Generator: Adobe Illustrator 16.0.0, SVG Export Plug-In . SVG Version: 6.00 Build 0)  -->
<!DOCTYPE svg PUBLIC "-//W3C//DTD SVG 1.1//EN" "http://www.w3.org/Graphics/SVG/1.1/DTD/svg11.dtd">
<svg version="1.1" id="Capa_1" xmlns="http://www.w3.org/2000/svg" xmlns:xlink="http://www.w3.org/1999/xlink" x="0px" y="0px"
	 width="303.311px" height="218.27px" viewBox="0 0 303.311 218.27" enable-background="new 0 0 303.311 218.27"
	 xml:space="preserve">
<g>
	<g>
		<path fill="#18ACFB" d="M164.815,181.91c38.746,0,70.27-31.515,70.27-70.261c0-38.743-31.522-70.272-70.27-70.272
			c-38.742,0-70.265,31.523-70.265,70.272C94.552,150.396,126.068,181.91,164.815,181.91z"/>
		<path fill="#18ACFB" d="M164.815,200.771c49.227,0,89.119-39.901,89.119-89.119c0-49.229-39.895-89.124-89.119-89.124
			c-49.22,0-89.119,39.896-89.119,89.124C75.697,160.867,115.595,200.771,164.815,200.771z M164.815,36.183
			c41.607,0,75.47,33.862,75.47,75.469c0,41.609-33.86,75.466-75.47,75.466c-41.608,0-75.463-33.855-75.463-75.466
			C89.352,70.045,123.207,36.183,164.815,36.183z"/>
		<path fill="#18ACFB" d="M303.459,209.063l-5.2-200.025c0-4.308-3.491-7.801-7.8-7.801c-1.15,0-2.232,0.265-3.214,0.719V1.88
			c0,0-0.203,0.13-0.493,0.328c-0.746,0.412-1.416,0.919-1.995,1.539c-5.708,4.685-23.905,23.779-25.431,49.592
			c-2.312,39.372,16.813,55.317,23.327,69.921l-5.198,85.799c0,4.305,8.692,7.799,12.999,7.799
			C294.767,216.861,303.459,213.369,303.459,209.063z"/>
		<path fill="#18ACFB" d="M14.614,87.206l13.461,6.724c1.534,0.77,3.225,1.33,4.992,1.747l-5.2,117.007
			c0,3.615,8.696,6.541,13,6.541c4.306,0,13-2.926,13-6.541l-5.2-117.604c1.831-0.576,3.596-1.279,5.14-2.225l9.973-6.072
			c7.196-4.391,12.619-14.046,12.619-22.476V11.88c0-4.307-3.494-7.8-7.8-7.8c-4.305,0-7.801,3.493-7.801,7.8v47.225h-4.332V11.88
			c0-4.307-3.493-7.8-7.8-7.8c-4.304,0-7.8,3.493-7.8,7.8v47.225h-4.347V11.88c0-4.307-3.494-7.8-7.8-7.8
			c-4.305,0-7.801,3.493-7.801,7.8v47.225H16.6v-45.54c0-4.306-3.494-7.8-7.801-7.8c-4.304,0-7.8,3.494-7.8,7.8v51.612
			C1,73.852,6.855,83.327,14.614,87.206z"/>
	</g>
</g>
</svg>
