<?xml version="1.0" encoding="utf-8"?>
<!-- Generator: Adobe Illustrator 16.0.0, SVG Export Plug-In . SVG Version: 6.00 Build 0)  -->
<!DOCTYPE svg PUBLIC "-//W3C//DTD SVG 1.1//EN" "http://www.w3.org/Graphics/SVG/1.1/DTD/svg11.dtd">
<svg version="1.1" id="Capa_1" xmlns="http://www.w3.org/2000/svg" xmlns:xlink="http://www.w3.org/1999/xlink" x="0px" y="0px"
	 width="150.5px" height="150.5px" viewBox="0 0 150.5 150.5" enable-background="new 0 0 150.5 150.5" xml:space="preserve">
<g>
	<g id="Sut7Eu_1_">
		<g>
			<g>
				<path fill="#18ACFB" d="M28.759,134.109c-2.229,0-4.461,0-6.685,0c-0.183-0.254-0.322-0.563-0.556-0.741
					c-1.066-0.791-1.348-1.447-1.041-2.701c0.094-0.375,0.254-0.735,0.363-1.106c0.406-1.36,0.229-2.036-0.939-2.858
					c-1.15-0.808-1.77-1.808-1.542-3.25c0.079-0.486,0.104-0.99,0.231-1.468c0.447-1.665,1.028-3.296,1.381-4.978
					c0.886-4.178,1.389-8.418,1.409-12.693c0.005-1.452,0.033-2.895-0.02-4.342c-0.036-0.939,0.287-1.569,1.112-2.047
					c0.708-0.416,1.432-0.92,1.95-1.543c2.445-2.967,3.605-6.479,3.968-10.254c0.338-3.482-0.282-6.864-1.361-10.166
					c-1.452-4.43-2.887-8.845-3.443-13.52c-0.317-2.679-0.015-5.076,1.409-7.333c0.15-0.233,0.343-0.452,0.442-0.706
					c0.774-1.965,0.16-3.105-1.628-3.572c-1.239-0.322-2.396-0.287-3.598,0.046c-2.96,0.817-5.377,3.948-5.502,7.025
					c-0.094,2.312,0.516,4.4,1.808,6.292c1.041,1.508,2.191,2.943,3.169,4.489c1.376,2.173,2.458,4.451,2.453,7.149
					c-0.005,1.992-0.299,3.862-1.267,5.574c3.28,5.479,2.179,13.715-0.193,15.813c0-1.396,0-2.646,0-3.9
					c-0.104,2.143-0.858,4.053-1.871,5.855c-0.792,1.4-1.666,2.762-2.575,4.086c-0.817,1.193-2.838-8.408-1.899-11.627
					c0.759-2.596,0.023-4.881-1.087-7.155c0.089,1.239,0.843,2.388,0.574,3.88c-0.231-0.273-0.381-0.376-0.406-0.503
					c-0.307-1.532-1.181-2.737-2.199-3.858c-1.239-1.355-2.534-2.656-3.694-4.072c-1.559-1.893-3.009-3.926-3.732-6.264
					c-0.531-1.717-1.305-3.25-2.138-4.812C0.983,67.583,0.541,66.207,0,64.882c0-2.231,0-4.464,0-6.688
					c0.089-0.135,0.234-0.254,0.264-0.401c0.739-3.895,2.514-7.175,5.611-9.719c3.194-2.615,6.708-3.951,10.91-3.321
					c2.438,0.363,4.789,0.919,7.021,1.944c2.257,1.034,4.431,1.176,6.698-0.053c2.89-1.56,5.855-2.953,9.006-3.926
					c2.859-0.878,5.792-1.221,8.719-0.848c3.011,0.381,5.984,1.082,8.944,1.79c3.951,0.939,7.904,1.747,12.002,1.493
					c0.165-0.013,0.333-0.005,0.498-0.005c3.412,0.011,6.728-0.355,9.858-1.924c2.194-1.102,4.286-2.31,6.124-3.953
					c2.153-1.917,4.367-3.755,6.541-5.657c0.99-0.874,2.076-1.706,2.854-2.75c1.24-1.681,2.615-3.158,4.429-4.212
					c0.879-0.511,1.635-1.135,1.965-2.158c0.493-1.562,1.642-2.471,3.093-3.06c1.153-0.462,2.174-1.097,3.008-2.046
					c1.146-1.338,2.641-1.998,4.396-1.988c0.813,0,1.396-0.29,1.768-1.008c3.229,0,6.459,0,9.698,0
					c0.076,0.074,0.152,0.198,0.233,0.213c0.965,0.198,2.016-0.01,2.895,0.625c0.103,0.076,0.346,0.056,0.479-0.005
					c0.762-0.351,1.4-0.043,2.063,0.299c0.934,0.495,1.867,0.968,2.995,0.892c0.335-0.028,0.695,0.269,1.046,0.432
					c0.6,0.279,1.198,0.576,1.799,0.863c0.599,0.284,1.324,0.437,1.787,0.868c1.817,1.704,3.787,3.275,5.117,5.443
					c0.279,0.447,0.747,0.795,1.174,1.127c0.949,0.754,1.975,1.419,2.889,2.216c0.539,0.467,1.058,0.765,1.777,0.739
					c0.95-0.038,1.899-0.008,2.844-0.008c0,0.226,0,0.449,0,0.673c-0.496,0.343-0.994,0.681-1.522,1.043
					c0.406,0.267,0.735,0.49,1.214,0.807c-0.848,0.478-1.595,0.828-2.249,1.3c-0.782,0.566-1.646,0.401-2.596,0.343
					c0.017,1.145-0.584,1.81-1.447,2.308c-0.233,0.137-0.405,0.381-0.608,0.574c-0.406,0.378-0.59,0.878-0.387,1.366
					c0.609,1.419-0.121,2.491-1.076,3.22c-1.432,1.087-2.072,2.531-2.67,4.113c-1.117,2.907-2.347,5.761-3.521,8.647
					c-0.208,0.508-0.37,1.039-0.487,1.574c-0.224,1.041-0.462,1.285-1.468,1.508c-0.538,0.109-1.086,0.244-1.554,0.51
					c-2.144,1.206-4.793-0.129-5.098-2.59c-0.058-0.406-0.193-0.873-0.447-1.176c-1.025-1.211-1.123-1.493-0.123-2.684
					c0.875-1.038,1.066-2.224,0.875-3.44c-0.315-2.077-0.635-4.156-1.447-6.131c-0.768-1.866-0.885-3.776,0.167-5.626
					c0.151-0.264,0.183-0.597,0.249-0.843c-0.168-0.165-0.232-0.29-0.32-0.317c-2.254-0.576-4.509,1.056-4.561,3.344
					c-0.04,2.059-0.055,4.123,0.021,6.183c0.143,3.948-0.559,7.754-1.93,11.42c-0.895,2.392-0.96,4.611,0.472,6.833
					c0.849,1.315,1.062,2.884,0.677,4.352c-0.438,1.647-0.123,3.191,0.131,4.773c0.117,0.69,0.523,1.013,1.271,1.041
					c1.808,0.061,3.524,0.611,5.108,1.409c2.355,1.183,4.701,2.193,7.404,2.324c1.264,0.059,2.01,0.916,1.935,2.246
					c-0.062,1.092,0.167,2.204,0.254,3.307c0.142,1.695-0.052,3.199-1.244,4.642c-2.26,2.742-4.356,5.627-5.784,8.929
					c-0.664,1.549-1.781,2.264-3.509,2.305c-1.249,0.021-2.63,0.041-3.636,0.945c-1.65,1.481-3.717,1.635-5.729,1.959
					c-0.781,0.123-1.423-0.334-1.492-0.984c-0.185-1.736,0.705-3.082,1.608-4.434c0.736-1.093,1.812-0.898,2.858-0.92
					c0.955-0.021,1.859-0.039,2.609,0.777c0.254,0.27,0.904,0.178,1.447,0.259c0.098-0.427,0.146-0.69,0.219-0.948
					c0.314-1.144,0.848-1.996,2.198-2.175c0.544-0.075,1.153-0.481,1.528-0.913c1.179-1.336,2.225-2.773,2.945-4.424
					c0.365-0.813,0.354-1.584,0.051-2.422c-0.223-0.604-0.324-1.273-0.411-1.926c-0.116-0.872-0.573-1.278-1.447-1.143
					c-0.649,0.106-1.29,0.32-1.948,0.416c-2.027,0.285-4.054,0.748-6.09,0.736c-1.681-0.005-3.428-0.213-4.986-1.105
					c-1.127-0.65-2.352-0.977-3.687-0.731c-0.706,0.132-1.427,0.233-2.138,0.233c-0.752,0-1.219,0.224-1.58,0.935
					c-1.203,2.392-2.239,4.834-2.863,7.444c-0.238,0.97-0.574,1.908-0.909,2.854c-0.446,1.249-1.046,2.458-1.387,3.736
					c-0.573,2.154-0.731,4.367-0.7,6.603c0.016,0.817-0.066,1.681-0.311,2.458c-0.939,2.977-1.301,6.059-1.695,9.131
					c-0.117,0.93-0.341,1.879-0.266,2.803c0.113,1.26,0.457,2.498,0.711,3.742c0.164,0.813,0.443,1.609,0.514,2.434
					c0.087,0.97,0.417,1.705,1.301,2.173c0.641,0.335,1.225,0.808,1.895,1.041c2.265,0.792,3.037,2.696,3.885,4.696
					c-0.387,0.219-0.604,0.406-0.854,0.473c-2.139,0.564-4.28,0.533-6.424,0.006c-1.016-0.249-1.463-0.936-1.473-1.945
					c0-0.554-0.012-1.117,0.021-1.67c0.102-1.473-0.564-2.447-1.885-3.017c-0.355-0.157-0.717-0.3-1.092-0.417
					c-0.914-0.279-1.393-0.895-1.402-1.844c-0.01-1.172-0.029-2.346,0.051-3.508c0.174-2.602,0.498-5.189,0.57-7.791
					c0.039-1.533-0.316-3.076-0.433-4.621c-0.087-1.213-0.157-2.438-0.081-3.649c0.105-1.655,0.521-3.296,0.521-4.946
					c-0.004-3.56-0.097-7.113-0.345-10.658c-0.106-1.467-0.604-2.936-1.098-4.336c-0.478-1.342-1.543-2.194-2.976-2.373
					c-0.873-0.105-1.787-0.045-2.662,0.047c-2.416,0.265-4.822,0.762-7.25,0.843c-2.879,0.103-5.762,0.214-8.658-0.203
					c-2.729-0.392-5.309-1.103-7.79-2.274c-0.774-0.359-1.633-0.543-2.666-0.873c-0.163,1.106-0.328,2.03-1.13,2.631
					c-0.099,0.07-0.094,0.31-0.114,0.478c-0.119,0.929-0.229,1.868-0.338,2.793c-0.198,1.706-0.411,3.401-0.586,5.108
					c-0.271,2.543-1.338,4.895-1.556,7.484c-0.244,2.955-0.333,5.881,0.251,8.774c0.998,4.944,2.839,9.587,5.558,13.842
					c1.424,2.233,3.199,4.129,5.672,5.251c0.713,0.325,1.404,0.682,2.097,1.041c1.59,0.85,3.052,3.001,3.359,5.063
					c-0.967,0.143-1.94,0.406-2.912,0.406c-1.435-0.011-2.877-0.152-4.306-0.33c-1.176-0.146-2.075-1.406-1.742-2.563
					c0.327-1.147-0.021-1.899-0.843-2.646c-0.779-0.717-1.579-1.209-2.671-1.133c-1.531,0.111-2.534-0.66-3.168-1.98
					c-0.19-0.405-0.368-0.812-0.526-1.229c-1.813-4.904-3.748-9.76-6.274-14.35c-0.698-1.266-1.308-2.631-2.252-3.697
					c-1.404-1.563-1.343-3.133-0.774-4.945c1.186-3.783,1.32-7.668,0.518-11.527c-0.546-2.631-2.168-4.676-4.189-6.393
					c-0.261,0.146-0.417,0.213-0.541,0.309c-1.32,1.107-2.585,2.285-3.974,3.302c-1.795,1.312-3.072,3.037-4.134,4.926
					c-1.731,3.077-3.895,5.806-6.38,8.298c-0.625,0.631-1.16,1.352-1.716,2.041c-1.892,2.373-3.295,4.992-4.237,7.893
					c-1.117,3.441-1.783,6.982-2.412,10.525c-0.224,1.315-0.084,2.688,0.561,3.896c0.576,1.077,0.843,2.098,0.472,3.342
					c-0.322,1.076-0.03,2.185,1,2.793c1.767,1.024,2.432,2.823,3.384,4.438C29.219,133.227,29,133.659,28.759,134.109z"/>
			</g>
		</g>
	</g>
</g>
</svg>
