<svg height="200" width="200" fill="#000000" xmlns="http://www.w3.org/2000/svg" xmlns:xlink="http://www.w3.org/1999/xlink" viewBox="0 0 100 100" version="1.1" x="0px" y="0px"><title>taxi</title><desc>Created with Sketch.</desc><g stroke="none" stroke-width="1" fill="none" fill-rule="evenodd"><path d="M75,51 L75,59 C75,59.5522847 74.5522847,60 74,60 L66,60 C65.4477153,60 65,59.5522847 65,59 L64.9999999,51.0000006 C64.9999999,50.4477159 64.5522847,50.0000006 64,50.0000006 L55.9961912,50.0000001 C55.4453961,50 54.9983003,50.4453929 54.9961984,50.996184 L54.9656402,59.0038161 C54.9635383,59.5546071 54.5164426,60 53.9656475,60 L46,60 C45.4477153,60 45,59.5522847 45,59 L44.9999999,51.0000006 C44.9999999,50.4477159 44.5522847,50.0000006 44,50.0000006 L36,50 C35.4477153,50 35,50.4477152 34.9999999,50.9999999 C34.9999999,51 34.9999999,51 34.9999999,51 L35,59 C35,59.5522847 34.5522847,60 34,60 L26,60 C25.4477153,60 25,59.5522847 25,59 L25,51.0589325 C25,50.5092022 25.443736,50.0625522 25.9934545,50.0589539 L34.0065455,50.0065028 C34.556264,50.0029046 35,49.5562545 35,49.0065243 L35,41 C35,40.4477153 35.4477153,40 36,40 L44,40 C44.5522847,40 45,40.4477153 45,41 L45.0000001,49 C45.0000001,49.5522847 45.4477153,50 46,50 L53.9961765,50.0000005 C54.5484613,50.0000006 54.9961766,49.5522853 54.9961766,49.0000006 C54.9961766,48.9987285 54.9961742,48.9974565 54.9961693,48.9961844 L54.9656693,41.0038161 C54.9635618,40.4515354 55.4095652,40.0021149 55.961846,40.0000073 C55.963118,40.0000024 55.96439,40 55.9656621,40 L64,40 C64.5522847,40 65,40.4477153 65,41 L65,49 C65,49.5522847 65.4477153,50 66,50 L74,50 C74.5522847,50 75,50.4477153 75,51 Z" fill="#000000"/></g></svg>