<?xml version="1.0" encoding="utf-8"?>
<!-- Generator: Adobe Illustrator 16.0.0, SVG Export Plug-In . SVG Version: 6.00 Build 0)  -->
<!DOCTYPE svg PUBLIC "-//W3C//DTD SVG 1.1//EN" "http://www.w3.org/Graphics/SVG/1.1/DTD/svg11.dtd">
<svg version="1.1" id="Capa_1" xmlns="http://www.w3.org/2000/svg" xmlns:xlink="http://www.w3.org/1999/xlink" x="0px" y="0px"
	 width="595.279px" height="841.891px" viewBox="0 0 595.279 841.891" enable-background="new 0 0 595.279 841.891"
	 xml:space="preserve">
<g>
	<g>
		<path fill="#18ACFB" stroke="#18ACFB" stroke-miterlimit="10" d="M244.636,291.129v-44.923c0-48.176-39.194-87.37-87.37-87.37
			s-87.37,39.194-87.37,87.37v44.923L0,652.311v30.745h17.474c24.712,0,37.769-13.058,47.303-22.593
			c8.566-8.567,12.768-12.355,22.591-12.355c9.822,0,14.024,3.787,22.591,12.355c9.535,9.535,22.592,22.593,47.303,22.593
			s37.769-13.058,47.303-22.593c8.567-8.567,12.77-12.355,22.593-12.355s14.026,3.788,22.594,12.356
			c9.535,9.534,22.593,22.592,47.307,22.592h17.473v-30.745L244.636,291.129z M192.214,415.12c0,19.3-15.646,34.948-34.948,34.948
			s-34.948-15.646-34.948-34.948V310.276h69.896L192.214,415.12L192.214,415.12z M209.688,275.328H104.844v-29.124
			c0-28.906,23.517-52.422,52.422-52.422s52.422,23.517,52.422,52.422V275.328z"/>
	</g>
</g>
<g>
	<g>
		<path fill="#18ACFB" stroke="#18ACFB" stroke-miterlimit="10" d="M577.807,158.836c-24.713,0-37.77,13.058-47.303,22.593
			c-8.566,8.567-12.77,12.355-22.592,12.355s-14.024-3.787-22.592-12.355c-9.534-9.535-22.592-22.593-47.302-22.593
			c-24.711,0-37.769,13.058-47.303,22.593c-8.567,8.567-12.77,12.355-22.593,12.355c-9.824,0-14.026-3.788-22.595-12.357
			c-9.534-9.535-22.592-22.591-47.304-22.591h-17.474v30.745l69.896,361.182v44.923c0,48.176,39.194,87.37,87.37,87.37
			s87.37-39.194,87.37-87.37v-44.923L595.28,189.58v-30.744H577.807z M403.066,426.77c0-19.3,15.646-34.948,34.948-34.948
			s34.949,15.647,34.949,34.948v104.844h-69.896V426.77H403.066z M490.437,595.686c0,28.906-23.518,52.422-52.423,52.422
			s-52.422-23.518-52.422-52.422v-29.123h104.844L490.437,595.686L490.437,595.686z"/>
	</g>
</g>
</svg>
