<?xml version="1.0" encoding="iso-8859-1"?>
<!-- Generator: Adobe Illustrator 19.0.0, SVG Export Plug-In . SVG Version: 6.00 Build 0)  -->
<svg version="1.1" id="Capa_1" xmlns="http://www.w3.org/2000/svg" xmlns:xlink="http://www.w3.org/1999/xlink" x="0px" y="0px"
	 viewBox="0 0 512 512" style="enable-background:new 0 0 512 512;" xml:space="preserve">
<g>
	<g>
		<path d="M210.411,144.345v-38.638c0-41.436-33.711-75.147-75.147-75.147c-41.436,0-75.147,33.711-75.147,75.147v38.638L0,454.997
			v26.444h15.029c21.255,0,32.485-11.231,40.685-19.432c7.368-7.369,10.982-10.627,19.431-10.627c8.448,0,12.062,3.257,19.43,10.627
			c8.201,8.201,19.431,19.432,40.685,19.432s32.485-11.231,40.685-19.432c7.369-7.369,10.983-10.627,19.432-10.627
			c8.449,0,12.064,3.258,19.433,10.628c8.201,8.2,19.432,19.431,40.688,19.431h15.029v-26.444L210.411,144.345z M165.323,250.99
			c0,16.6-13.457,30.059-30.059,30.059c-16.601,0-30.059-13.458-30.059-30.059v-90.176h60.117V250.99z M180.352,130.755H90.176
			v-25.049c0-24.862,20.227-45.088,45.088-45.088c24.862,0,45.088,20.227,45.088,45.088V130.755z"/>
	</g>
</g>
<g>
	<g>
		<path d="M496.971,30.56c-21.255,0-32.485,11.231-40.685,19.432c-7.368,7.369-10.983,10.627-19.431,10.627
			s-12.062-3.257-19.431-10.627c-8.2-8.201-19.431-19.432-40.684-19.432c-21.254,0-32.485,11.231-40.685,19.432
			c-7.369,7.369-10.983,10.627-19.432,10.627c-8.45,0-12.064-3.258-19.434-10.628c-8.2-8.201-19.431-19.431-40.686-19.431h-15.029
			v26.444l60.117,310.652v38.638c0,41.436,33.711,75.147,75.147,75.147c41.436,0,75.147-33.711,75.147-75.147v-38.638L512,57.003
			V30.56H496.971z M346.677,261.01c0-16.6,13.457-30.059,30.059-30.059c16.601,0,30.059,13.458,30.059,30.059v90.176h-60.117V261.01
			z M421.824,406.294c0,24.862-20.227,45.088-45.088,45.088c-24.862,0-45.088-20.227-45.088-45.088v-25.049h90.176V406.294z"/>
	</g>
</g>
<g>
</g>
<g>
</g>
<g>
</g>
<g>
</g>
<g>
</g>
<g>
</g>
<g>
</g>
<g>
</g>
<g>
</g>
<g>
</g>
<g>
</g>
<g>
</g>
<g>
</g>
<g>
</g>
<g>
</g>
</svg>
