<?xml version="1.0" encoding="utf-8"?>
<!-- Generator: Adobe Illustrator 16.0.0, SVG Export Plug-In . SVG Version: 6.00 Build 0)  -->
<!DOCTYPE svg PUBLIC "-//W3C//DTD SVG 1.1//EN" "http://www.w3.org/Graphics/SVG/1.1/DTD/svg11.dtd">
<svg version="1.1" id="Capa_1" xmlns="http://www.w3.org/2000/svg" xmlns:xlink="http://www.w3.org/1999/xlink" x="0px" y="0px"
	 width="127.56px" height="70.87px" viewBox="0 0 127.56 70.87" enable-background="new 0 0 127.56 70.87" xml:space="preserve">
<g>
	<g>
		<path fill="#2E9AD7" d="M23.75,35.547l7.124,1.93c0.48,0.127,0.97-0.156,1.1-0.637c0.027-0.097,0.037-0.196,0.03-0.29
			c0.006-0.036,0.013-0.077,0.013-0.116c0.157-2.757,0.684-5.227,1.447-7.594l4.55,1.177c-0.796,2.53-1.347,5.173-1.513,8.077v0.039
			c-0.093,0.461,0.187,0.92,0.65,1.044l6.08,1.646c0.48,0.127,0.97-0.157,1.1-0.637c0.017-0.066,0.026-0.137,0.03-0.203
			c0.017-0.06,0.027-0.124,0.03-0.19c0.157-2.753,0.716-5.293,1.513-7.74l5.13,1.327c-0.816,2.56-1.387,5.217-1.55,8.08v0.07
			c-0.007,0.017-0.01,0.036-0.017,0.054c-0.127,0.479,0.157,0.969,0.637,1.1l6.353,1.72c0.48,0.127,0.97-0.157,1.1-0.637
			c0.023-0.093,0.033-0.183,0.03-0.273c0.01-0.05,0.02-0.103,0.023-0.156c0.01-0.153,0.02-0.387,0.03-0.63
			c0.023-0.53,0.05-1.107,0.1-1.521c0.25-1.986,0.707-3.887,1.296-5.739l4.39,1.133c-0.633,1.983-1.12,4.026-1.387,6.177
			c-0.033,0.26-0.073,0.659-0.113,1.113c-0.037,0.413-0.067,0.81-0.087,1.113v0.013c-0.086,0.457,0.193,0.914,0.65,1.034
			l7.523,2.036c0.479,0.127,0.97-0.156,1.1-0.637c0.014-0.05,0.023-0.096,0.027-0.146c0.025-0.08,0.046-0.163,0.049-0.253
			c0.157-2.73,0.777-5.413,1.641-8.023l4.627,1.196c-0.904,2.724-1.554,5.533-1.717,8.391c-0.007,0.104,0.006,0.199,0.033,0.293
			c-0.023,0.416,0.246,0.803,0.663,0.916l6.387,1.73c0.057,0.017,0.116,0.027,0.181,0.03c0.492,0.03,0.92-0.347,0.946-0.844
			c0.087-1.456,0.296-2.93,0.603-4.399c0.311-1.483,0.714-2.964,1.184-4.42c0.021-0.066,0.033-0.134,0.041-0.2
			c0.043-0.073,0.079-0.153,0.103-0.243c0.124-0.48-0.163-0.967-0.644-1.094l-5.443-1.406c1.01-2.69,2.244-5.317,3.43-7.811
			c0.211-0.446,0.021-0.983-0.43-1.193c-0.066-0.03-0.133-0.053-0.199-0.066l-0.041-0.01l-6.293-1.59
			c-0.273-0.07-0.553-0.003-0.76,0.157c-0.133,0.087-0.246,0.213-0.32,0.367c-1.22,2.566-2.473,5.253-3.503,8.049l-5.927-1.533
			c0.91-2.466,2.027-4.866,3.184-7.293c0.029-0.06,0.05-0.123,0.063-0.183c0.074-0.093,0.127-0.204,0.157-0.327
			c0.124-0.48-0.17-0.97-0.649-1.093l-6.177-1.577c-0.48-0.124-0.97,0.17-1.093,0.65c-0.003,0.013-0.007,0.03-0.01,0.043
			l-0.003,0.006c-1.173,2.463-2.307,4.9-3.237,7.417c-0.04,0.107-0.077,0.21-0.117,0.317l-4.513-1.167
			c0.906-2.463,2.033-4.88,3.2-7.333c0.04-0.083,0.067-0.173,0.077-0.26l0.007-0.023c0.117-0.48-0.177-0.967-0.657-1.087
			l-6.867-1.697c-0.48-0.116-0.967,0.177-1.086,0.657l-0.007,0.03c-1.187,2.497-2.333,4.943-3.27,7.487l-4.414-1.14
			c0.867-2.374,1.937-4.69,3.077-7.087c0.037-0.077,0.06-0.157,0.073-0.236c0.023-0.05,0.043-0.107,0.057-0.164
			c0.117-0.48-0.177-0.967-0.657-1.086l-6.247-1.543c-0.474-0.117-0.954,0.167-1.08,0.633v0.013
			c-0.017,0.027-0.033,0.057-0.047,0.087c-1.183,2.486-2.293,4.853-3.2,7.32l-5.573-1.44c-0.014-0.003-0.027-0.007-0.04-0.01
			c-0.063-0.043-0.137-0.077-0.21-0.104c-0.47-0.157-0.977,0.1-1.13,0.57c-0.437,1.313-0.83,2.66-1.193,4.083
			c-0.353,1.387-0.696,2.923-1.05,4.646l-0.003,0.01C22.987,34.927,23.27,35.416,23.75,35.547z"/>
		<path fill="#2E9AD7" d="M118.924,43.8c-0.084-0.022-0.174-0.046-0.371-0.106l-3.656-1.076c-0.22-0.624-0.453-1.273-0.71-1.934
			c-0.847-2.19-1.913-4.507-3.12-6.813c-0.213-0.407-0.42-0.797-0.627-1.17c-0.227-0.417-0.443-0.807-0.649-1.17
			c-2.08-3.677-4.794-8.147-7.214-11.21c-1.855-2.347-3.633-3.91-5.039-3.83L40.12,5.124l-0.06-0.01
			c-0.11-0.023-0.313-0.066-0.507-0.106c-1.56-0.33-2.396-0.507-4.133,0.283C29.183,8.124,24.433,12.507,21.003,18
			c-3.17,5.073-5.204,11.093-6.24,17.697L9.2,39.406l-0.017,0.01c-0.62,0.438-1.103,0.881-1.406,1.311
			c-0.27,0.391-0.41,0.79-0.397,1.2c0.017,0.467,0.217,0.88,0.633,1.227c0.28,0.233,0.664,0.431,1.164,0.587l1.883,0.57
			l81.911,22.322c0.807,0.221,1.439,0.374,2.115,0.424c0.691,0.05,1.374-0.02,2.248-0.26c4.893-1.337,9.709-3.463,13.816-6.504
			c3.535-2.617,6.543-5.914,8.638-9.958c0.188-0.435,0.355-0.883,0.499-1.335c0.297-0.95,0.49-1.916,0.557-2.787
			C120.983,44.367,120.264,44.17,118.924,43.8z M97.793,18.27c0.711,0.086,1.94,1.336,3.373,3.15
			c2.344,2.967,5.008,7.36,7.061,10.987c0.227,0.403,0.439,0.783,0.633,1.143c0.217,0.394,0.42,0.777,0.611,1.144
			c1.173,2.24,2.209,4.496,3.036,6.63c0.771,1.993,1.347,3.877,1.67,5.536c0.023,0.117,0.021,0.091,0.06,0.294
			c0.1,0.5,0.141,0.69-0.063,1.24c-1.258,3.394-3.598,6.1-6.438,8.173c-3.449,2.521-7.64,4.11-11.543,4.87
			c-0.177,0.033-0.337,0.06-0.483,0.08v0.003c-0.399-1.523-0.677-3.536-0.843-5.887c-0.201-2.836-0.24-6.126-0.141-9.613
			c0.014-0.42,0.027-0.856,0.043-1.316c0.018-0.41,0.033-0.854,0.057-1.333c0.09-1.92,0.127-4.104,0.167-6.351
			C95.13,29.087,95.279,20.293,97.793,18.27z M16.13,39.104c0.8-7.61,2.867-14.514,6.397-20.167c3.247-5.2,7.736-9.347,13.63-12.023
			C37.363,6.367,38,6.5,39.187,6.75c0.11,0.023,0.224,0.047,0.517,0.106c0.023,0.007,0.05,0.014,0.074,0.017l55.969,11.083
			c-2.273,3.54-2.41,11.64-2.539,19.037c-0.037,2.204-0.074,4.341-0.167,6.294c-0.021,0.42-0.04,0.873-0.057,1.354
			c-0.017,0.43-0.03,0.873-0.044,1.329c-0.104,3.567-0.063,6.917,0.141,9.787l-0.004,0.003c0.15,2.144,0.395,4.037,0.74,5.57
			c-0.08-0.023-0.166-0.047-0.253-0.07c-0.204-0.057-0.423-0.116-0.58-0.16L18.24,41.166c-0.287-0.076-0.463-0.123-0.63-0.162
			C16.383,40.693,15.973,40.587,16.13,39.104z M118.57,48.46c-0.117,0.36-0.141,0.413-0.211,0.657v0.003
			c-1.945,3.933-4.863,7.196-8.283,9.727c-3.92,2.899-8.529,4.934-13.22,6.214c-0.649,0.176-1.153,0.229-1.646,0.196
			c-0.51-0.037-1.06-0.173-1.773-0.366l-80.62-21.904l-0.007-0.003l-3.113-0.967c-0.227-0.069-0.387-0.14-0.494-0.21l0.043-0.063
			c0.18-0.257,0.513-0.55,0.963-0.87l4.247-2.823c-0.05,0.307-0.083,0.587-0.11,0.87c-0.317,3.027,0.47,3.227,2.83,3.823
			c0.22,0.057,0.453,0.116,0.61,0.157l74.743,19.934c0.258,0.066,0.414,0.113,0.557,0.152c1.258,0.351,1.877,0.523,3.447,0.217
			c4.131-0.803,8.576-2.496,12.26-5.187c3.11-2.271,5.68-5.25,7.066-9.003c0.377-1.018,0.311-1.348,0.134-2.211
			c-0.007-0.025,0.011,0.044-0.054-0.279c-0.119-0.62-0.273-1.27-0.469-1.914l2.563,0.797c0.076,0.023,0.246,0.07,0.406,0.113
			c0.414,0.113,0.637,0.178,0.607,0.554C118.99,46.811,118.826,47.641,118.57,48.46z"/>
	</g>
</g>
</svg>
