<?xml version="1.0" encoding="utf-8"?>
<!-- Generator: Adobe Illustrator 16.0.0, SVG Export Plug-In . SVG Version: 6.00 Build 0)  -->
<!DOCTYPE svg PUBLIC "-//W3C//DTD SVG 1.1//EN" "http://www.w3.org/Graphics/SVG/1.1/DTD/svg11.dtd">
<svg version="1.1" id="Capa_1" xmlns="http://www.w3.org/2000/svg" xmlns:xlink="http://www.w3.org/1999/xlink" x="0px" y="0px"
	 width="102.05px" height="42.52px" viewBox="0 0 102.05 42.52" enable-background="new 0 0 102.05 42.52" xml:space="preserve">
<g>
	<path fill="#319BD7" d="M102,24v16c0,1.104-0.896,2-2,2H84c-1.104,0-2-0.896-2-2V24c0-1.104-0.896-2-2-2H63.992
		c-1.102,0-1.996,0.891-2,1.992l-0.061,16.016c-0.004,1.102-0.898,1.992-2,1.992H44c-1.104,0-2-0.896-2-2V24c0-1.104-0.896-2-2-2H24
		c-1.104,0-2,0.896-2,2l0,0v16c0,1.104-0.896,2-2,2H4c-1.104,0-2-0.896-2-2V24.117c0-1.099,0.888-1.992,1.987-2l16.026-0.104
		c1.099-0.008,1.987-0.901,1.987-2V4c0-1.104,0.896-2,2-2h16c1.104,0,2,0.896,2,2v16c0,1.104,0.896,2,2,2h15.992
		c1.105,0,2-0.896,2-2c0-0.002,0-0.005,0-0.008L61.932,4.008C61.928,2.903,62.819,2.004,63.924,2c0.002,0,0.005,0,0.008,0H80
		c1.104,0,2,0.896,2,2v16c0,1.104,0.896,2,2,2h16C101.104,22,102,22.896,102,24z"/>
</g>
</svg>
